<?xml version="1.0" encoding="UTF-8" standalone="no"?>
<!-- Generator: Adobe Illustrator 18.0.0, SVG Export Plug-In . SVG Version: 6.00 Build 0)  -->

<svg
   xmlns:dc="http://purl.org/dc/elements/1.1/"
   xmlns:cc="http://creativecommons.org/ns#"
   xmlns:rdf="http://www.w3.org/1999/02/22-rdf-syntax-ns#"
   xmlns:svg="http://www.w3.org/2000/svg"
   xmlns="http://www.w3.org/2000/svg"
   xmlns:sodipodi="http://sodipodi.sourceforge.net/DTD/sodipodi-0.dtd"
   xmlns:inkscape="http://www.inkscape.org/namespaces/inkscape"
   version="1.1"
   id="Capa_1"
   x="0px"
   y="0px"
   viewBox="0 0 198.496 198.496"
   style="enable-background:new 0 0 198.496 198.496;"
   xml:space="preserve"
   sodipodi:docname="profile.svg"
   inkscape:version="0.92.4 (5da689c313, 2019-01-14)"><metadata
   id="metadata178"><rdf:RDF><cc:Work
       rdf:about=""><dc:format>image/svg+xml</dc:format><dc:type
         rdf:resource="http://purl.org/dc/dcmitype/StillImage" /><dc:title></dc:title></cc:Work></rdf:RDF></metadata><defs
   id="defs176" /><sodipodi:namedview
   pagecolor="#ffffff"
   bordercolor="#666666"
   borderopacity="1"
   objecttolerance="10"
   gridtolerance="10"
   guidetolerance="10"
   inkscape:pageopacity="0"
   inkscape:pageshadow="2"
   inkscape:window-width="1304"
   inkscape:window-height="745"
   id="namedview174"
   showgrid="false"
   inkscape:zoom="2.9118974"
   inkscape:cx="99.248001"
   inkscape:cy="99.248001"
   inkscape:window-x="54"
   inkscape:window-y="-8"
   inkscape:window-maximized="1"
   inkscape:current-layer="Capa_1" />
<g
   id="g141"
   transform="matrix(1.2500143,0,0,1,-23.439745,0)">
	<g
   id="g129">
		<rect
   x="84.550003"
   y="148.231"
   style="fill:#fdcc9b"
   width="29.395"
   height="32.922001"
   id="rect95" />
		<path
   style="fill:#fcbc85"
   d="m 84.551,152.108 c 0,0 12.365,7.874 29.395,6.05 V 148.23 H 84.551 Z"
   id="path97"
   inkscape:connector-curvature="0" />
		<ellipse
   style="fill:#fcbc85"
   cx="42.164001"
   cy="97.181"
   rx="14.343"
   ry="16.364"
   id="ellipse99" />
		<ellipse
   style="fill:#fcbc85"
   cx="156.332"
   cy="97.181"
   rx="14.343"
   ry="16.364"
   id="ellipse101" />
		<path
   style="fill:#fdcc9b"
   d="m 156.274,65.925 c 0,-24.103 -17.637,-41.741 -57.026,-41.741 -39.389,0 -57.026,17.637 -57.026,41.741 0,24.104 -4.115,87.597 57.026,87.597 61.141,0 57.026,-63.493 57.026,-87.597 z"
   id="path103"
   inkscape:connector-curvature="0" />
		<g
   id="g121">
			<g
   id="g109">
				<ellipse
   style="fill:#3b2519"
   cx="71.472"
   cy="93.262001"
   rx="6.1729999"
   ry="6.7610002"
   id="ellipse105" />
				<circle
   style="fill:#ffffff"
   cx="68.780998"
   cy="90.277"
   r="1.846"
   id="circle107" />
			</g>
			<path
   style="fill:#51362a"
   d="m 61.597,76.507 c 2.919,1.46 7.606,-4.96 18.335,0.625 1.956,1.018 3.123,-8.708 -8.377,-8.708 -9.958,0 -11.722,7.202 -9.958,8.083 z"
   id="path111"
   inkscape:connector-curvature="0" />
			<g
   id="g117">
				<ellipse
   style="fill:#3b2519"
   cx="127.786"
   cy="93.262001"
   rx="6.1729999"
   ry="6.7610002"
   id="ellipse113" />
				<circle
   style="fill:#ffffff"
   cx="125.095"
   cy="90.277"
   r="1.846"
   id="circle115" />
			</g>
			<path
   style="fill:#51362a"
   d="m 136.899,76.507 c -2.919,1.46 -7.606,-4.96 -18.335,0.625 -1.956,1.018 -3.123,-8.708 8.378,-8.708 9.957,0 11.72,7.202 9.957,8.083 z"
   id="path119"
   inkscape:connector-curvature="0" />
		</g>
		<path
   style="fill:#fcbc85"
   d="m 99.248,117.043 c -6.1,0 -9.774,-4.556 -9.774,-2.352 0,2.205 1.764,6.394 9.774,6.394 8.01,0 9.774,-4.189 9.774,-6.394 0,-2.205 -3.675,2.352 -9.774,2.352 z"
   id="path123"
   inkscape:connector-curvature="0" />
		<path
   style="fill:#fcbc85"
   d="m 99.248,137.313 c -2.11,0 -3.381,-1.576 -3.381,-0.813 0,0.763 0.61,2.211 3.381,2.211 2.771,0 3.38,-1.448 3.38,-2.211 0,-0.763 -1.271,0.813 -3.38,0.813 z"
   id="path125"
   inkscape:connector-curvature="0" />
		<path
   style="fill:#f7945e"
   d="m 99.248,131.696 c -9.668,0 -15.493,-3.937 -15.493,-2.939 0,0.998 2.796,4.924 15.493,4.924 12.697,0 15.493,-3.926 15.493,-4.924 -0.001,-0.998 -5.825,2.939 -15.493,2.939 z"
   id="path127"
   inkscape:connector-curvature="0" />
	</g>
	<path
   style="fill:#f7941e"
   d="m 99.248,161.458 v 37.038 H 27.821 c 0,-14.992 37.623,-37.038 71.427,-37.038 z"
   id="path131"
   inkscape:connector-curvature="0" />
	<path
   style="fill:#f7941e"
   d="m 99.248,161.458 v 37.038 h 71.427 c 0,-14.992 -37.623,-37.038 -71.427,-37.038 z"
   id="path133"
   inkscape:connector-curvature="0" />
	<path
   style="fill:#f36c21"
   d="m 99.248,161.458 c -7.19,0 -14.552,1.005 -21.689,2.72 0.048,0.063 7.916,10.214 21.689,10.214 12.754,0 21.233,-8.693 22.462,-10.03 -7.378,-1.831 -15.012,-2.904 -22.462,-2.904 z"
   id="path135"
   inkscape:connector-curvature="0" />
	<path
   style="fill:#fdcc9b"
   d="m 84.55,162.74 c 0,0 4.299,5.332 14.697,5.332 10.398,0 14.698,-5.332 14.698,-5.332 0,0 -15.248,-5.551 -29.395,0 z"
   id="path137"
   inkscape:connector-curvature="0" />
	<path
   style="fill:#51362a"
   d="m 146.132,19.041 c 0,0 -21.164,-26.896 -65.152,-16.755 -43.987,10.14 -47.283,36.596 -45.96,62.335 1.323,25.74 4.85,40.84 9.022,38.974 4.172,-1.867 2.001,-18.857 2.442,-22.778 0.441,-3.921 4.409,-21.653 31.162,-19.007 26.752,2.646 49.296,-7.055 49.296,-7.055 0,0 9.075,11.471 15.047,13.669 11.934,4.391 8.02,33.67 12.696,33.67 4.676,0 27.603,-67.621 -8.553,-83.053 z"
   id="path139"
   inkscape:connector-curvature="0" />
</g>
<g
   id="g143">
</g>
<g
   id="g145">
</g>
<g
   id="g147">
</g>
<g
   id="g149">
</g>
<g
   id="g151">
</g>
<g
   id="g153">
</g>
<g
   id="g155">
</g>
<g
   id="g157">
</g>
<g
   id="g159">
</g>
<g
   id="g161">
</g>
<g
   id="g163">
</g>
<g
   id="g165">
</g>
<g
   id="g167">
</g>
<g
   id="g169">
</g>
<g
   id="g171">
</g>
</svg>