<?xml version="1.0" encoding="UTF-8" standalone="no"?>
<!-- Generator: Adobe Illustrator 16.0.0, SVG Export Plug-In . SVG Version: 6.00 Build 0)  -->

<svg
   xmlns:dc="http://purl.org/dc/elements/1.1/"
   xmlns:cc="http://creativecommons.org/ns#"
   xmlns:rdf="http://www.w3.org/1999/02/22-rdf-syntax-ns#"
   xmlns:svg="http://www.w3.org/2000/svg"
   xmlns="http://www.w3.org/2000/svg"
   xmlns:sodipodi="http://sodipodi.sourceforge.net/DTD/sodipodi-0.dtd"
   xmlns:inkscape="http://www.inkscape.org/namespaces/inkscape"
   version="1.1"
   id="Capa_1"
   x="0px"
   y="0px"
   width="485.213px"
   height="485.212px"
   viewBox="0 0 485.213 485.212"
   style="enable-background:new 0 0 485.213 485.212;"
   xml:space="preserve"
   sodipodi:docname="svgContact.svg"
   inkscape:version="0.92.4 (5da689c313, 2019-01-14)"><metadata
   id="metadata3961"><rdf:RDF><cc:Work
       rdf:about=""><dc:format>image/svg+xml</dc:format><dc:type
         rdf:resource="http://purl.org/dc/dcmitype/StillImage" /></cc:Work></rdf:RDF></metadata><defs
   id="defs3959" /><sodipodi:namedview
   pagecolor="#ffffff"
   bordercolor="#666666"
   borderopacity="1"
   objecttolerance="10"
   gridtolerance="10"
   guidetolerance="10"
   inkscape:pageopacity="0"
   inkscape:pageshadow="2"
   inkscape:window-width="1304"
   inkscape:window-height="745"
   id="namedview3957"
   showgrid="false"
   inkscape:zoom="0.48638533"
   inkscape:cx="242.60651"
   inkscape:cy="242.606"
   inkscape:window-x="54"
   inkscape:window-y="-8"
   inkscape:window-maximized="1"
   inkscape:current-layer="Capa_1" />
<g
   id="g3924"
   style="fill:#ffffff">
	<path
   d="M242.607,0C108.629,0,0.001,108.628,0.001,242.606c0,133.976,108.628,242.606,242.606,242.606   c133.978,0,242.604-108.631,242.604-242.606C485.212,108.628,376.585,0,242.607,0z M370.719,353.989l-19.425,19.429   c-3.468,3.463-13.623,5.624-13.949,5.624c-61.452,0.536-120.621-23.602-164.095-67.08c-43.593-43.618-67.759-102.998-67.11-164.657   c0-0.028,2.224-9.892,5.689-13.324l19.424-19.427c7.108-7.141,20.762-10.368,30.327-7.168l4.086,1.363   c9.537,3.197,19.55,13.742,22.185,23.457l9.771,35.862c2.635,9.743-0.919,23.604-8.025,30.712l-12.97,12.972   c12.734,47.142,49.723,84.138,96.873,96.903l12.965-12.975c7.141-7.141,20.997-10.692,30.719-8.061l35.857,9.806   c9.717,2.67,20.26,12.62,23.456,22.154l1.363,4.145C381.028,333.262,377.826,346.913,370.719,353.989z"
   id="path3922"
   style="fill:#ffffff" />
</g>
<g
   id="g3926">
</g>
<g
   id="g3928">
</g>
<g
   id="g3930">
</g>
<g
   id="g3932">
</g>
<g
   id="g3934">
</g>
<g
   id="g3936">
</g>
<g
   id="g3938">
</g>
<g
   id="g3940">
</g>
<g
   id="g3942">
</g>
<g
   id="g3944">
</g>
<g
   id="g3946">
</g>
<g
   id="g3948">
</g>
<g
   id="g3950">
</g>
<g
   id="g3952">
</g>
<g
   id="g3954">
</g>
</svg>