<?xml version="1.0" encoding="iso-8859-1"?>
<!-- Generator: Adobe Illustrator 19.0.0, SVG Export Plug-In . SVG Version: 6.00 Build 0)  -->
<svg version="1.1" id="Capa_1" xmlns="http://www.w3.org/2000/svg" xmlns:xlink="http://www.w3.org/1999/xlink" x="0px" y="0px"
	 viewBox="0 0 512 512" style="enable-background:new 0 0 512 512;" xml:space="preserve">
<path style="fill:#F15741;" d="M220.8,293.333c81.067,2.133,163.2,73.6,244.267,20.267c0-56.533,0-144,0-200.533
	C384,167.467,301.867,96,220.8,92.8C220.8,149.333,220.8,236.8,220.8,293.333z"/>
<path style="fill:#F3705B;" d="M299.733,260.267c-50.133-16-100.267-30.933-150.4,2.133c0-60.8,0-151.467,0-212.267
	c50.133-33.067,100.267-19.2,150.4-2.133C299.733,108.8,299.733,200.533,299.733,260.267z"/>
<path style="fill:#435B6C;" d="M299.733,260.267c-26.667,8.533-53.333,17.067-78.933,33.067c0-17.067,0-34.133,0-50.133
	C247.467,244.267,274.133,251.733,299.733,260.267z"/>
<path style="fill:#FFD15D;" d="M134.4,0c-11.733,0-21.333,9.6-21.333,21.333v446.933h42.667V21.333C155.733,9.6,146.133,0,134.4,0z"
	/>
<path style="fill:#435B6C;" d="M172.8,461.867H97.067c-27.733,0-50.133,22.4-50.133,50.133h176
	C222.933,484.267,200.533,461.867,172.8,461.867z"/>
<g>
</g>
<g>
</g>
<g>
</g>
<g>
</g>
<g>
</g>
<g>
</g>
<g>
</g>
<g>
</g>
<g>
</g>
<g>
</g>
<g>
</g>
<g>
</g>
<g>
</g>
<g>
</g>
<g>
</g>
</svg>
